<svg width="108" height="21" viewBox="0 0 108 21" fill="none" xmlns="http://www.w3.org/2000/svg">
<g clip-path="url(#clip0_1045_1712)">
<path d="M13.7833 2.28733C12.9269 1.80561 11.8362 1.71466 9.8662 2.92875C6.59045 5.17363 3.81872 8.47223 3.63546 13.7638C3.58965 13.9012 3.26895 13.7409 3.22313 13.718C2.32976 12.0228 1.98615 10.2361 2.71918 7.67048C2.85662 7.44143 2.39848 7.16653 2.32976 7.23528C2.16941 7.39563 1.4822 8.12863 1.04696 8.90748C-1.17502 12.7788 0.268121 17.7038 4.16232 19.88C8.0565 22.0561 12.9587 20.6588 15.1348 16.7646C17.6088 12.2519 15.2493 3.11199 13.7833 2.28733Z" fill="#8CB352"/>
<path d="M27.7566 4.62378C23.1523 4.62378 19.7849 8.05984 19.7849 12.7787C19.7849 17.5433 23.1294 20.8649 27.9169 20.8649C30.3451 20.8649 32.2464 20.1089 33.7582 18.5512C34.2164 18.0702 34.2622 17.5892 34.2622 17.4059C34.2622 16.6271 33.6895 16.0773 32.9107 16.0773C32.5213 16.0773 32.1777 16.2376 31.7882 16.5812C30.9178 17.383 29.7953 18.2076 27.9169 18.2076C25.3055 18.2076 23.1752 16.2376 23.0377 13.7179H33.4604C34.5829 13.7179 35.1556 13.191 35.1556 12.0915C35.1556 11.7708 35.1556 11.5417 35.0869 11.0835C34.5142 7.05194 31.7882 4.62378 27.7566 4.62378ZM27.7566 7.16644C30.2535 7.16644 31.857 8.76994 31.9715 11.3355H23.0377C23.2668 8.95319 25.2826 7.16644 27.7566 7.16644Z" fill="black"/>
<path d="M45.0973 4.62378C42.9899 4.62378 40.9282 5.83784 40.1036 7.51004V6.47924C40.1036 4.87575 38.8666 4.78412 38.6146 4.78412C37.8816 4.78412 37.1028 5.21934 37.1028 6.47924V18.9865C37.1028 20.6587 38.4314 20.7274 38.6833 20.7274C38.9582 20.7274 40.2639 20.6358 40.2639 18.9865V12.2976C40.2639 9.38844 41.9132 7.34969 44.2727 7.34969C46.5634 7.34969 47.6858 8.86159 47.6858 11.954V19.0094C47.6858 20.6816 49.0144 20.7503 49.2664 20.7503C49.5184 20.7503 50.847 20.6587 50.847 19.0094V10.969C50.87 7.87659 49.358 4.62378 45.0973 4.62378Z" fill="black"/>
<path d="M65.2324 4.78418C64.4994 4.78418 63.9724 5.2194 63.6519 6.04405L59.2994 16.9708L54.9929 6.067C54.6494 5.2194 54.1224 4.80709 53.3664 4.80709C52.4964 4.80709 51.7859 5.4943 51.7859 6.31895C51.7859 6.5251 51.8089 6.8 51.9924 7.21235L56.9859 19.0095C57.5814 20.4297 58.5664 20.7275 59.2764 20.7275C59.9869 20.7275 60.9719 20.4297 61.5674 19.0095L66.5839 7.1665C66.7444 6.7542 66.7904 6.4564 66.7904 6.29605C66.7904 5.4256 66.1259 4.78418 65.2324 4.78418Z" fill="black"/>
<path d="M74.464 4.62378C72.4255 4.62378 70.547 5.19644 69.1495 6.20434C68.6685 6.52504 68.4395 6.93739 68.4395 7.46424C68.4395 8.17439 68.989 8.72414 69.6765 8.72414C69.974 8.72414 70.318 8.60959 70.6155 8.38054C71.8295 7.57879 72.952 7.21229 74.189 7.21229C76.5255 7.21229 77.877 8.40344 77.877 10.488V10.8316C72.6085 10.8316 67.2485 11.473 67.2485 16.0544C67.2485 19.353 70.066 20.842 72.8605 20.842C75.0825 20.842 76.8695 19.9715 78.0145 18.2993V19.101C78.0145 20.2922 78.8165 20.7274 79.5035 20.7274C79.641 20.7274 80.924 20.6816 80.924 19.101V10.6941C80.924 6.89159 78.4955 4.62378 74.464 4.62378ZM77.19 13.191H77.8545V13.924C77.8545 16.6041 76.159 18.3222 73.525 18.3222C72.8145 18.3222 70.478 18.1618 70.478 16.0086C70.478 13.4888 74.3035 13.191 77.19 13.191Z" fill="black"/>
<path d="M89.1934 7.67045C90.5904 7.67045 90.6594 6.59385 90.6594 6.36475C90.6594 5.72335 90.2699 5.03615 89.1934 5.03615H86.3299V2.14987C86.3299 0.867075 85.4824 0.408936 84.7719 0.408936C84.4974 0.408936 83.1914 0.50056 83.1914 2.14987V15.8712C83.1914 19.0323 84.7494 20.7046 87.7044 20.7046C88.4604 20.7046 89.2159 20.5672 89.6974 20.3381C90.2469 20.0632 90.5674 19.605 90.5674 19.0782C90.5674 18.3451 90.0409 17.8183 89.3079 17.8183C89.1704 17.8183 88.9639 17.8641 88.7349 17.91C88.4604 17.9787 88.2769 18.0016 88.0709 18.0016C86.8794 18.0016 86.3069 17.2227 86.3069 15.5276V7.67045H89.1934Z" fill="black"/>
<path d="M99.6846 4.62378C94.8741 4.62378 91.3926 8.03694 91.3926 12.7099C91.3926 15.0007 92.2401 17.0852 93.7746 18.5742C95.2866 20.0631 97.3941 20.8649 99.6846 20.8649C104.427 20.8649 108 17.3601 108 12.7099C108 8.03694 104.495 4.62378 99.6846 4.62378ZM99.6846 18.1847C96.3861 18.1847 94.6681 15.4359 94.6681 12.7099C94.6681 8.97609 97.2566 7.28099 99.6846 7.28099C102.09 7.28099 104.702 8.97609 104.702 12.7099C104.702 16.4896 102.09 18.1847 99.6846 18.1847Z" fill="black"/>
</g>
<defs>
<clipPath id="clip0_1045_1712">
<rect width="108" height="21" fill="white"/>
</clipPath>
</defs>
</svg>
